<?xml version="1.0" standalone="no"?>
<!DOCTYPE svg PUBLIC "-//W3C//DTD SVG 20010904//EN"
 "http://www.w3.org/TR/2001/REC-SVG-20010904/DTD/svg10.dtd">
<svg version="1.0" xmlns="http://www.w3.org/2000/svg"
 width="300.000000pt" height="300.000000pt" viewBox="0 0 300.000000 300.000000"
 preserveAspectRatio="xMidYMid meet">
<metadata>
Created by potrace 1.10, written by Peter Selinger 2001-2011
</metadata>
<g transform="translate(0.000000,300.000000) scale(0.100000,-0.100000)"
fill="#000000" stroke="none">
<path d="M1740 2332 c0 -62 -21 -94 -82 -127 -52 -29 -56 -30 -183 -27 -112 2
-144 -2 -234 -24 -81 -21 -117 -25 -167 -21 -88 8 -157 40 -205 96 l-41 46 5
-60 c2 -33 8 -69 13 -80 7 -17 2 -16 -29 8 -50 38 -47 17 3 -23 36 -28 53 -60
33 -60 -5 0 -30 18 -58 40 -27 21 -51 37 -53 35 -9 -9 13 -50 47 -88 37 -42
36 -43 -26 -20 -7 3 -13 -2 -13 -12 0 -18 56 -79 80 -87 12 -4 12 -10 -3 -48
-9 -24 -13 -46 -8 -49 10 -7 -4 -94 -26 -161 -18 -55 -24 -206 -10 -240 6 -14
16 -43 22 -65 7 -22 15 -48 20 -57 12 -30 -73 -24 -121 8 -75 51 -107 117
-106 217 0 79 -10 89 -63 64 -50 -24 -69 -67 -62 -144 l5 -63 -45 0 c-73 0
-123 -37 -123 -89 0 -12 -5 -30 -12 -40 -9 -15 -9 -26 2 -48 7 -15 12 -32 11
-38 -8 -29 -1 -59 20 -81 12 -13 24 -31 25 -40 7 -49 78 -69 153 -43 30 11 33
9 97 -58 36 -37 64 -61 61 -53 -3 8 -8 23 -13 34 -6 16 -4 17 17 11 13 -4 39
-16 58 -26 27 -16 32 -17 28 -4 -4 8 -1 15 5 15 6 0 16 6 22 14 6 7 29 16 52
20 l41 6 11 -63 c7 -34 25 -102 40 -152 29 -89 29 -90 41 -60 l13 30 19 -50
c22 -59 67 -117 76 -97 4 10 8 9 19 -5 26 -35 18 -45 -31 -37 -56 8 -82 -11
-91 -68 -4 -21 -12 -38 -18 -38 -40 0 -183 -23 -190 -30 -15 -15 38 -29 162
-42 161 -17 936 -16 1105 0 212 21 233 44 57 62 -58 6 -129 13 -157 16 -50 5
-53 7 -53 34 0 41 -43 73 -90 66 -31 -5 -33 -4 -15 7 41 26 136 122 165 167
34 53 66 199 56 259 -5 32 -4 33 13 17 17 -16 19 -16 23 2 9 34 108 9 108 -27
0 -14 7 -14 23 -1 7 6 29 22 50 35 l38 25 -7 -22 c-4 -13 -9 -29 -11 -35 -10
-27 8 -11 34 30 16 23 36 51 46 61 9 11 17 25 17 32 0 8 20 10 70 6 85 -6 120
11 120 58 0 17 5 30 10 30 6 0 18 16 27 35 12 25 14 40 6 57 -6 15 -6 31 1 50
8 21 7 34 -2 48 -6 11 -12 29 -12 41 0 11 -14 34 -30 51 -28 28 -34 29 -94 26
l-64 -3 5 56 c8 88 -34 151 -104 153 -35 1 -38 -1 -35 -24 16 -131 -3 -212
-66 -272 -35 -35 -123 -70 -137 -56 -3 3 5 23 20 43 14 21 25 42 25 46 0 5 7
9 14 9 12 0 13 6 4 31 -6 17 -8 59 -6 93 4 41 1 71 -7 87 -9 16 -10 28 -3 36
7 9 -5 30 -46 75 -70 79 -105 143 -108 199 -4 57 -13 62 -39 20 -14 -24 -16
-32 -6 -28 10 4 18 -6 25 -31 15 -48 61 -120 113 -177 30 -33 37 -45 25 -45
-15 0 -15 -3 3 -29 30 -42 25 -61 -6 -26 -18 20 -24 23 -18 10 4 -11 17 -53
28 -92 16 -56 18 -78 9 -95 l-11 -23 0 25 c-2 55 -19 53 -19 -2 1 -113 -98
-208 -218 -208 -59 0 -119 18 -140 41 -16 18 -14 18 34 12 87 -10 200 27 254
84 40 42 47 71 49 201 2 136 2 137 -99 244 -40 43 -52 62 -47 77 5 16 2 18
-17 13 -22 -5 -22 -5 5 29 51 63 94 169 68 169 -13 0 -33 -27 -23 -32 4 -1 5
-14 1 -28 -5 -18 -7 -20 -8 -6 -1 13 -6 16 -17 12 -13 -5 -14 -3 -6 6 14 18
42 116 42 150 0 35 -16 36 -52 1 l-28 -27 0 50 c0 28 -3 54 -7 57 -3 4 -17 -3
-31 -15 l-24 -23 6 30 c4 20 1 37 -8 50 -14 19 -15 17 -16 -23z m60 -76 c0
-22 -9 -45 -26 -65 -23 -28 -22 -44 2 -22 19 19 104 61 104 52 0 -23 -80 -108
-118 -125 -52 -24 -56 -41 -5 -19 51 21 72 37 95 70 l19 28 -7 -30 c-18 -78
-57 -117 -143 -141 -113 -31 -126 -38 -180 -93 -31 -31 -62 -65 -68 -76 -11
-18 -12 -17 -7 10 15 71 73 153 149 210 11 8 15 15 8 15 -20 0 -123 -102 -145
-143 l-20 -41 -19 25 c-23 29 -23 24 -4 -31 18 -50 18 -50 5 -50 -5 0 -27 26
-49 58 -33 50 -90 111 -67 75 10 -18 3 -16 -36 7 -37 21 -119 52 -125 47 -2
-2 28 -16 66 -31 76 -30 138 -78 170 -131 26 -44 19 -44 -31 1 -47 43 -96 64
-152 69 -88 6 -221 28 -250 40 -17 7 -40 24 -51 37 l-20 23 26 -20 25 -20 -26
26 c-14 14 -31 36 -38 49 -13 21 -12 22 10 17 12 -3 39 -8 58 -11 35 -6 35 -6
12 10 -25 19 -122 137 -122 150 0 4 15 -6 33 -23 55 -52 109 -73 250 -93 180
-27 241 -45 281 -85 9 -9 16 -12 16 -6 0 19 -66 60 -127 78 -35 10 -63 21 -63
24 0 21 154 42 230 31 l55 -7 -48 -28 c-64 -38 -56 -43 13 -9 30 15 92 42 137
60 54 22 99 48 130 77 27 24 49 44 51 45 1 0 2 -15 2 -34z m-888 -149 l21 -29
-21 11 c-12 6 -29 26 -38 44 -16 30 -16 31 0 18 9 -8 26 -28 38 -44z m-61 -56
c22 -8 29 -20 39 -63 32 -138 68 -161 262 -168 134 -5 137 -6 167 -34 32 -31
91 -134 91 -161 0 -9 -12 -37 -26 -61 l-27 -45 19 -41 c22 -49 21 -81 -6 -118
-39 -55 -148 -87 -220 -66 -19 6 -22 5 -10 -3 12 -9 10 -11 -10 -11 -42 0 -85
35 -134 109 -26 39 -50 71 -53 71 -3 0 2 -10 11 -22 26 -38 58 -100 52 -105
-8 -8 -64 76 -71 107 -4 17 -11 33 -17 36 -7 4 -8 -2 -3 -17 11 -37 -10 -10
-24 30 -20 60 -7 164 29 231 12 23 12 24 -3 11 -16 -12 -16 -10 -2 29 8 24 20
49 26 57 9 10 8 13 -5 13 -22 0 -49 -57 -43 -93 2 -17 -3 -47 -11 -67 -8 -19
-15 -65 -15 -101 0 -59 5 -74 41 -140 22 -41 53 -86 69 -101 72 -69 207 -91
311 -50 l54 21 -15 -22 c-42 -66 -202 -83 -302 -32 l-50 25 28 -25 c34 -30 24
-32 -40 -4 -86 37 -136 106 -137 192 -1 42 -3 45 -15 30 -12 -16 -13 -14 -8
17 3 19 8 44 12 55 7 20 6 20 -9 1 -23 -29 -21 0 4 47 20 37 16 49 -9 25 -8
-9 -7 -1 3 24 9 20 19 63 22 95 4 32 13 73 20 91 7 17 9 32 4 32 -5 0 -5 14 1
32 13 48 11 58 -13 67 -13 5 -31 18 -41 29 -18 19 -17 20 29 14 l47 -5 -41 38
c-43 38 -56 63 -24 45 9 -5 29 -14 43 -19z m996 -33 c-20 -48 -66 -83 -144
-108 -128 -43 -161 -70 -188 -159 -9 -31 -21 -71 -27 -88 -14 -49 -42 -43 -72
15 -9 18 -14 37 -11 42 3 5 0 12 -6 16 -8 4 -9 3 -5 -4 4 -7 5 -12 3 -12 -2 0
-18 23 -36 50 -18 28 -45 56 -59 64 -15 7 -67 16 -117 18 -49 3 -79 2 -65 -2
23 -7 22 -8 -11 -9 -81 -2 -185 51 -172 87 5 11 3 13 -7 7 -9 -5 -11 -4 -6 3
4 7 1 12 -6 13 -9 0 -10 2 -1 5 7 3 21 1 32 -5 11 -6 66 -16 123 -22 57 -6
118 -17 137 -25 40 -17 52 -18 31 -3 -35 24 37 -5 82 -33 57 -35 105 -89 125
-136 11 -27 17 -32 24 -21 5 8 9 29 9 47 0 81 90 180 189 208 96 27 139 45
162 70 29 31 34 25 16 -18z m27 -163 c59 -61 92 -109 88 -127 -1 -5 3 -8 9 -8
5 0 8 -4 5 -9 -3 -5 -1 -35 5 -67 16 -86 -3 -182 -44 -230 -33 -37 -87 -72
-87 -55 0 5 -17 0 -37 -11 -46 -24 -149 -21 -201 6 -48 25 -57 53 -39 117 l16
54 -35 45 c-34 42 -36 48 -31 102 6 70 38 140 75 164 24 16 183 80 205 83 5 1
37 -28 71 -64z m430 -197 c9 -12 16 -32 16 -43 0 -17 2 -18 11 -5 8 11 9 7 5
-17 -15 -86 -16 -98 -7 -78 9 18 10 19 10 1 1 -10 -11 -32 -25 -49 -15 -18
-24 -40 -23 -56 1 -14 -1 -38 -5 -53 -4 -14 -3 -35 3 -46 7 -13 7 -22 -1 -30
-13 -13 -1 -122 13 -122 6 0 7 5 4 10 -8 13 -8 13 65 -6 36 -9 77 -13 96 -9
34 6 44 -4 22 -23 -21 -16 -95 -25 -103 -12 -4 6 -15 8 -25 5 -11 -3 -28 -1
-39 5 -19 10 -20 8 -15 -20 7 -32 -11 -44 -19 -12 -3 9 -5 4 -6 -13 -2 -38
-21 -72 -21 -37 0 28 -3 28 -38 -8 -17 -16 -38 -30 -48 -30 -16 0 -16 2 2 21
19 21 19 22 -1 16 -55 -15 -79 -17 -111 -11 -32 6 -39 14 -66 71 -17 35 -35
66 -40 69 -5 4 -2 -9 7 -27 27 -51 55 -139 45 -139 -6 0 -16 15 -24 34 -18 44
-66 115 -66 98 0 -7 7 -24 16 -37 17 -26 48 -159 41 -178 -2 -7 -12 4 -22 23
-9 19 -22 41 -27 47 -6 7 -11 47 -13 90 -3 69 -6 79 -29 100 -15 13 -35 23
-44 23 -13 0 -11 -5 10 -23 38 -31 49 -85 42 -202 -5 -80 -12 -114 -36 -170
-44 -104 -54 -120 -77 -123 -12 -2 -21 -9 -21 -15 0 -7 -10 -28 -22 -47 -21
-33 -24 -39 -27 -57 -3 -19 -72 -53 -134 -67 -131 -31 -294 -13 -362 38 -18
14 -43 42 -56 63 -13 20 -24 32 -27 25 -5 -16 22 -63 52 -91 40 -37 31 -45
-16 -14 -23 16 -54 48 -70 72 -16 25 -28 37 -28 28 0 -31 -19 -17 -40 29 -11
26 -20 60 -20 76 0 28 -1 29 -22 14 -12 -9 -26 -16 -29 -16 -13 0 -31 102 -25
142 8 51 34 100 49 95 7 -2 15 -26 18 -53 8 -63 30 -113 63 -143 14 -14 26
-30 26 -36 0 -7 8 -23 19 -36 10 -13 16 -29 14 -35 -2 -5 12 -18 32 -27 19 -9
35 -13 35 -8 0 14 -36 41 -44 34 -4 -5 -7 -3 -5 2 1 6 -10 35 -24 65 -15 30
-27 66 -28 80 -1 23 -2 22 -8 -5 l-7 -30 -16 30 c-24 47 -41 132 -35 178 6 41
6 41 -7 13 -11 -23 -14 -25 -19 -11 -13 31 -6 90 13 130 22 46 24 55 10 55
-28 0 -67 -118 -50 -150 6 -12 -1 -23 -26 -44 -19 -15 -39 -24 -45 -20 -16 9
-4 85 21 137 l21 42 -24 -29 c-14 -15 -30 -46 -37 -67 -11 -33 -18 -40 -49
-45 -20 -4 -55 -7 -78 -7 -34 0 -41 -3 -32 -14 20 -23 -32 -16 -58 9 l-23 21
0 -22 c0 -12 -4 -19 -10 -16 -5 3 -10 18 -10 33 -1 25 -2 26 -15 9 -13 -18
-14 -18 -25 4 -8 14 -10 40 -5 73 10 77 9 107 -5 116 -9 6 -9 13 -1 28 8 14 8
29 1 47 -5 14 -10 37 -10 49 0 13 -9 31 -20 41 -11 10 -20 24 -20 32 0 8 -3
12 -7 10 -5 -3 -8 7 -8 21 0 15 -4 42 -8 60 -4 21 -3 31 3 27 6 -3 10 4 10 16
0 28 27 59 52 59 15 0 18 -8 18 -57 0 -103 29 -167 103 -227 34 -27 47 -31
101 -32 53 -1 68 -6 106 -33 47 -34 138 -65 162 -56 11 5 23 -6 39 -34 20 -36
39 -53 39 -35 0 10 -23 49 -32 55 -5 3 33 9 84 12 139 10 151 14 225 74 l42
34 14 -27 14 -26 22 28 22 28 56 -28 c37 -18 86 -31 143 -38 111 -14 176 3
244 63 35 31 52 40 69 35 65 -16 159 49 196 134 22 52 30 134 17 188 -7 30 -6
32 18 32 14 0 31 -9 40 -22z m-782 -89 c44 -46 44 -38 1 -176 -14 -46 -28 -83
-32 -82 -3 0 -28 44 -55 98 -35 70 -47 103 -42 119 10 32 55 82 73 82 9 0 34
-19 55 -41z m964 -104 c30 -12 35 -19 32 -42 -2 -23 -8 -28 -30 -28 -16 1 -28
-3 -28 -8 0 -9 -76 -3 -127 10 -27 6 -30 35 -7 53 14 12 66 26 107 29 10 0 34
-6 53 -14z m-1056 -84 c0 -5 3 -16 6 -25 6 -15 -64 -99 -98 -117 -17 -9 -17
-8 -1 28 10 21 30 53 45 71 16 18 28 37 28 42 0 6 5 10 10 10 6 0 10 -4 10 -9z
m-907 -23 c31 -16 21 -46 -20 -57 -82 -21 -94 -23 -128 -17 -30 6 -35 11 -35
35 0 26 14 39 60 55 19 6 100 -4 123 -16z m1091 -31 c34 -30 70 -59 81 -66 18
-11 18 -11 -5 -5 -38 10 -102 44 -127 67 -21 19 -32 57 -17 57 4 0 34 -24 68
-53z m816 39 c14 0 44 3 68 7 41 7 42 7 42 -21 0 -39 -28 -62 -86 -68 -93 -11
-165 26 -149 76 5 17 12 19 53 12 26 -3 58 -6 72 -6z m-1885 -112 c0 -24 -7
-32 -37 -47 -81 -40 -188 -18 -188 37 0 19 6 21 78 22 42 1 88 6 102 12 35 15
45 10 45 -24z m1908 11 c77 0 87 -2 87 -18 0 -10 -11 -29 -25 -42 -20 -21 -34
-25 -79 -25 -31 0 -74 7 -96 16 -36 15 -40 20 -40 51 0 34 0 34 33 26 17 -4
71 -8 120 -8z m-1886 -118 c-11 -42 -125 -77 -185 -56 -33 11 -52 35 -52 63 0
13 10 15 58 11 41 -4 71 0 107 13 58 21 82 11 72 -31z m-9 -79 c-2 -17 -9 -23
-25 -22 -13 0 -23 -3 -23 -7 0 -5 -6 -6 -14 -3 -8 3 -17 1 -21 -5 -13 -22 -95
-5 -95 19 0 6 19 10 43 11 23 0 58 7 77 14 51 20 62 18 58 -7z m1398 -160 c16
-48 14 -76 -8 -147 l-11 -34 -17 23 -18 23 1 -39 c2 -51 -41 -114 -59 -89 -13
18 -27 5 -19 -17 3 -8 -4 -26 -16 -39 l-21 -24 17 28 c25 43 12 42 -21 -2 -31
-42 -75 -75 -114 -86 -19 -6 -14 0 17 24 42 31 112 116 113 137 0 6 10 16 23
21 15 7 29 28 40 59 28 85 43 123 49 130 4 3 11 -14 16 -38 l10 -43 1 37 c1
20 -5 43 -13 50 -7 8 -15 38 -18 67 l-5 54 18 -24 c10 -13 26 -45 35 -71z
m-1030 6 c-3 -9 -6 -28 -7 -42 -1 -24 -2 -23 -9 8 -9 36 -6 50 12 50 5 0 7 -7
4 -16z m134 -400 c0 -3 -6 -18 -14 -32 -8 -15 -17 -35 -20 -44 -7 -22 -25 -23
-33 -2 -9 25 23 84 47 84 11 0 20 -3 20 -6z m780 -14 c19 -19 29 -80 13 -80
-19 1 -53 60 -53 93 0 13 20 7 40 -13z m-646 -17 c28 -14 51 -14 90 2 14 6 17
5 14 -6 -3 -8 6 -19 24 -26 15 -7 28 -17 28 -23 0 -19 -33 -24 -98 -12 -42 7
-73 7 -90 1 -37 -14 -41 0 -7 27 30 24 30 24 5 24 -14 0 -38 -14 -57 -32 -27
-26 -33 -29 -38 -15 -12 29 0 61 25 74 27 13 58 9 104 -14z m586 8 c12 -23 13
-71 2 -71 -5 0 -19 11 -32 25 -13 14 -32 25 -43 25 -20 0 -19 -1 3 -25 13 -14
22 -25 19 -25 -2 0 -33 -3 -69 -5 -36 -3 -81 -6 -100 -8 -45 -3 -47 22 -4 43
17 8 29 21 27 28 -6 15 2 15 27 0 15 -10 28 -8 67 9 61 27 90 28 103 4z m-280
-60 c0 -42 21 -55 78 -46 26 4 70 8 97 9 28 1 57 6 64 11 9 5 19 2 29 -11 8
-10 16 -14 18 -9 15 37 24 40 45 15 20 -24 21 -24 35 -5 8 10 14 23 14 28 0 6
8 3 18 -5 9 -9 24 -18 32 -20 56 -19 -305 -37 -500 -26 -19 1 -51 1 -70 -1
-19 -2 -92 -3 -163 -2 -125 1 -127 1 -115 21 13 21 38 27 38 10 0 -5 20 -7 48
-3 27 3 73 0 102 -6 44 -10 57 -9 76 4 13 9 24 24 24 34 0 27 9 31 72 31 57 0
58 0 58 -29z m-512 -36 c10 -22 9 -23 -9 -17 -11 5 -20 11 -20 15 1 4 1 12 1
17 0 19 17 10 28 -15z m72 -17 c0 -4 -11 -8 -25 -8 -28 0 -30 3 -14 32 11 21
12 21 25 3 8 -10 14 -22 14 -27z"/>
<path d="M1690 2175 c-25 -13 -56 -34 -70 -45 l-25 -21 35 15 c64 26 88 40 99
58 6 10 10 18 9 18 -2 -1 -23 -12 -48 -25z"/>
<path d="M996 2100 c6 -6 28 -13 50 -17 52 -8 33 12 -21 22 -29 5 -37 4 -29
-5z"/>
<path d="M1090 1753 c-79 -55 -98 -166 -43 -242 30 -40 101 -73 143 -66 49 9
98 41 116 78 20 38 14 145 -10 182 -40 61 -150 87 -206 48z m170 -38 c83 -79
44 -220 -67 -241 -67 -13 -137 43 -149 118 -8 46 23 115 63 141 42 26 115 18
153 -18z"/>
<path d="M1129 1681 c-22 -23 -29 -39 -29 -70 0 -81 75 -121 139 -73 22 16 26
28 29 83 2 51 1 62 -9 52 -7 -7 -24 -13 -37 -13 -21 0 -24 4 -20 25 4 21 1 25
-19 25 -14 0 -37 -13 -54 -29z m53 -71 c-6 -11 -12 -27 -12 -36 0 -13 -3 -14
-14 -5 -22 18 -25 48 -9 71 14 20 17 21 32 6 13 -13 13 -20 3 -36z m53 -31 c0
-7 -8 -15 -17 -17 -18 -3 -25 18 -11 32 10 10 28 1 28 -15z"/>
<path d="M860 1401 c0 -28 41 -96 73 -120 l32 -25 -26 30 c-15 16 -38 52 -52
79 -15 28 -26 44 -27 36z"/>
<path d="M1622 1810 c-73 -45 -96 -152 -49 -235 29 -52 101 -90 152 -81 40 8
90 46 110 87 23 44 19 130 -8 170 -48 71 -141 98 -205 59z m136 -27 c39 -24
62 -73 62 -131 0 -45 -4 -57 -33 -88 -77 -85 -211 -32 -224 88 -13 114 100
190 195 131z"/>
<path d="M1632 1753 c-10 -4 -10 -8 -1 -19 18 -22 3 -47 -26 -42 -21 4 -25 1
-25 -17 0 -98 97 -150 161 -86 75 75 -11 204 -109 164z m82 -46 c22 -16 19
-80 -4 -85 -24 -4 -53 53 -40 78 13 23 20 25 44 7z m-54 -87 c0 -21 -24 -28
-35 -10 -8 14 3 30 21 30 8 0 14 -9 14 -20z"/>
<path d="M1962 1585 c-1 -22 -5 -51 -7 -65 l-6 -25 11 25 c6 13 9 42 7 65 l-4
40 -1 -40z"/>
<path d="M1905 1457 c-11 -17 -42 -45 -69 -64 -60 -41 -47 -44 16 -4 47 30 83
72 76 89 -1 5 -12 -4 -23 -21z"/>
<path d="M1990 1266 c0 -31 38 -99 66 -120 67 -48 170 -25 198 45 22 54 19 62
-5 17 -25 -49 -60 -71 -110 -71 -54 0 -88 26 -121 93 -16 31 -27 47 -28 36z"/>
<path d="M1767 1199 c-10 -6 -29 -8 -42 -5 -30 8 -84 -29 -152 -101 l-53 -56
-70 6 c-59 5 -76 11 -107 36 -21 17 -45 31 -54 31 -9 0 -47 11 -84 25 -38 13
-71 22 -74 19 -9 -8 42 -44 56 -39 6 2 17 -2 23 -10 6 -8 27 -23 46 -34 l34
-20 -6 27 c-5 24 0 20 45 -28 49 -52 53 -54 66 -36 13 17 41 14 30 -4 -3 -5
-1 -11 4 -14 5 -4 12 -2 15 2 3 5 22 9 43 10 28 1 34 -1 23 -8 -8 -5 -10 -10
-5 -10 12 0 43 20 32 20 -12 0 20 30 32 30 6 0 21 18 33 40 13 22 29 38 35 35
7 -2 25 11 40 30 34 42 52 45 45 9 -4 -21 -2 -25 9 -18 8 5 23 9 34 9 16 0 20
7 20 33 1 17 1 32 0 32 0 0 -8 -5 -18 -11z"/>
<path d="M1060 1131 c-15 -29 -12 -61 6 -68 19 -7 46 7 52 28 4 11 2 12 -9 2
-7 -7 -21 -13 -32 -13 -18 0 -18 8 0 58 8 19 -5 14 -17 -7z"/>
<path d="M1845 1137 c-6 -14 -14 -17 -33 -12 -22 5 -24 4 -13 -9 8 -9 19 -16
26 -16 18 0 38 27 32 42 -3 9 -7 7 -12 -5z"/>
<path d="M1751 1049 c0 -15 -8 -33 -17 -40 -14 -11 -21 -10 -46 4 -20 11 -28
13 -26 5 3 -7 17 -20 31 -28 25 -14 28 -13 48 6 14 15 19 30 16 50 -4 28 -4
28 -6 3z"/>
<path d="M1150 1033 c0 -22 31 -63 49 -63 14 0 61 40 61 52 0 7 -11 1 -25 -12
-29 -27 -51 -21 -72 21 l-13 24 0 -22z"/>
<path d="M1067 973 c-13 -12 -7 -68 9 -91 21 -30 35 -28 61 10 29 41 21 49
-12 12 -25 -29 -25 -29 -41 -9 -10 13 -14 32 -10 53 5 33 4 37 -7 25z"/>
<path d="M1842 938 c-3 -35 -19 -44 -43 -22 -28 25 -24 2 4 -25 21 -19 26 -20
36 -7 7 8 11 30 8 48 -3 28 -4 29 -5 6z"/>
<path d="M1580 937 c0 -20 56 -67 81 -67 20 0 64 38 55 47 -3 4 -14 -1 -24
-10 -27 -25 -50 -21 -83 14 -19 20 -29 26 -29 16z"/>
<path d="M1329 899 c-32 -34 -52 -36 -80 -8 -19 19 -20 19 -17 3 2 -10 15 -25
30 -34 32 -17 50 -10 82 33 27 37 17 41 -15 6z"/>
<path d="M1500 907 c0 -7 7 -23 16 -35 17 -24 64 -31 64 -8 0 9 -8 12 -25 8
-20 -3 -27 1 -35 22 -10 28 -20 34 -20 13z"/>
<path d="M1419 886 c-7 -16 -20 -26 -33 -26 -15 0 -17 -3 -9 -11 17 -17 42 -4
53 27 14 35 4 44 -11 10z"/>
<path d="M961 849 c-13 -39 -15 -77 -2 -63 10 10 26 94 18 94 -3 0 -10 -14
-16 -31z"/>
<path d="M1803 841 c8 -23 8 -33 -2 -45 -16 -19 -42 -21 -59 -4 -7 7 -12 8
-12 2 0 -6 9 -19 19 -28 38 -34 82 18 67 79 -4 14 -10 25 -15 25 -5 0 -4 -13
2 -29z"/>
<path d="M1212 799 c-11 -17 -20 -20 -44 -15 -26 5 -29 4 -18 -9 7 -8 20 -15
30 -15 20 0 54 34 48 50 -1 5 -9 1 -16 -11z"/>
<path d="M1288 783 c-8 -35 -33 -44 -56 -21 -7 7 -12 8 -12 2 0 -16 22 -34 42
-34 21 0 40 33 36 63 -3 18 -5 16 -10 -10z"/>
<path d="M1553 799 c14 -41 18 -108 8 -128 -15 -27 -25 -26 -51 1 -11 12 -20
16 -20 10 0 -14 36 -52 48 -52 5 0 17 9 27 20 14 15 17 32 13 80 -2 33 -10 66
-18 73 -10 10 -12 9 -7 -4z"/>
<path d="M1640 797 c0 -9 7 -23 16 -31 19 -19 54 -5 54 21 0 14 -2 14 -15 -3
-15 -19 -15 -19 -35 5 -14 17 -20 19 -20 8z"/>
<path d="M1355 736 c7 -33 -17 -76 -42 -76 -9 0 -26 8 -37 18 -20 17 -20 17
-4 -8 24 -38 69 -34 87 8 8 17 22 32 31 32 18 0 57 37 48 45 -3 3 -11 -1 -18
-10 -17 -20 -39 -19 -57 3 -13 15 -14 14 -8 -12z"/>
<path d="M1621 697 c-3 -57 49 -75 90 -30 l24 26 -31 -22 c-35 -26 -59 -20
-73 17 -6 19 -10 21 -10 9z"/>
<path d="M1211 670 c-1 -30 30 -100 44 -100 2 0 -2 15 -9 33 -8 17 -19 48 -24
67 l-10 35 -1 -35z"/>
<path d="M1440 655 c0 -43 -22 -56 -50 -30 -11 10 -20 14 -20 8 0 -15 34 -43
52 -43 27 0 51 81 28 95 -6 4 -10 -8 -10 -30z"/>
<path d="M1585 610 c-10 -12 -34 -30 -53 -42 -28 -17 -37 -19 -60 -9 -25 12
-26 11 -10 -5 23 -24 61 -12 111 36 23 22 39 40 36 40 -3 0 -14 -9 -24 -20z"/>
<path d="M1260 556 c0 -9 180 -47 201 -43 20 4 20 5 -6 6 -16 1 -63 10 -104
21 -76 20 -91 23 -91 16z"/>
<path d="M1460 1508 c0 -18 5 -40 10 -48 7 -11 10 -2 10 33 0 26 -4 47 -10 47
-5 0 -10 -15 -10 -32z"/>
<path d="M1390 430 c8 -5 29 -10 45 -10 17 0 37 5 45 10 11 7 -3 10 -45 10
-42 0 -56 -3 -45 -10z"/>
</g>
</svg> 